<svg width="77" height="64" viewBox="0 0 77 64" fill="none" xmlns="http://www.w3.org/2000/svg">
<circle cx="24" cy="23.5" r="23.5" fill="#F4EDE6"/>
<path d="M55.922 50.8467C55.922 50.9014 55.9173 50.956 55.9067 51.0094C55.896 51.0634 55.8807 51.1154 55.86 51.166C55.8393 51.2167 55.8147 51.2647 55.7847 51.31C55.7547 51.3554 55.7207 51.398 55.6827 51.4367C55.6453 51.4754 55.604 51.51 55.5593 51.54C55.5147 51.5707 55.4673 51.596 55.418 51.6174C55.3687 51.638 55.3174 51.654 55.2647 51.6647C55.212 51.6754 55.1587 51.6807 55.1054 51.6807C55.0514 51.6807 54.9987 51.6754 54.946 51.6647C54.8934 51.654 54.842 51.638 54.7927 51.6174C54.7427 51.596 54.696 51.5707 54.6514 51.54C54.6067 51.51 54.5654 51.4754 54.5274 51.4367C54.4894 51.398 54.456 51.3554 54.426 51.31C54.396 51.2647 54.3707 51.2167 54.3507 51.166C54.33 51.1154 54.314 51.0634 54.304 51.0094C54.2934 50.956 54.288 50.9014 54.288 50.8467C54.288 50.792 54.2934 50.738 54.304 50.684C54.314 50.63 54.33 50.578 54.3507 50.5274C54.3707 50.4767 54.396 50.4287 54.426 50.3834C54.456 50.338 54.4894 50.2954 54.5274 50.2567C54.5654 50.218 54.6067 50.1834 54.6514 50.1534C54.696 50.1227 54.7427 50.0974 54.7927 50.076C54.842 50.0554 54.8934 50.0394 54.946 50.0287C54.9987 50.018 55.0514 50.0127 55.1054 50.0127C55.1587 50.0127 55.212 50.018 55.2647 50.0287C55.3174 50.0394 55.3687 50.0554 55.418 50.076C55.4673 50.0974 55.5147 50.1227 55.5593 50.1534C55.604 50.1834 55.6453 50.218 55.6827 50.2567C55.7207 50.2954 55.7547 50.338 55.7847 50.3834C55.8147 50.4287 55.8393 50.4767 55.86 50.5274C55.8807 50.578 55.896 50.63 55.9067 50.684C55.9173 50.738 55.922 50.792 55.922 50.8467Z" fill="#A5836A"/>
<path d="M69.524 29.81L62.4347 23.5347V12.4773C62.4347 12.0407 62.0807 11.6867 61.644 11.6867C61.2073 11.6867 60.8527 12.0407 60.8527 12.4773V22.1347L56.1007 17.928V13.2687H56.944C57.3807 13.2687 57.7353 12.9147 57.7353 12.4773C57.7353 12.0407 57.3807 11.6867 56.944 11.6867H55.3093C54.8727 11.6867 54.5187 12.0407 54.5187 12.4773V16.528L45.7613 8.77601C45.1187 8.20668 44.112 8.20868 43.4707 8.78068L19.4333 30.2373C19.108 30.5287 19.0793 31.0287 19.37 31.3547C19.5267 31.5293 19.7433 31.6187 19.9607 31.6187C20.148 31.6187 20.3367 31.552 20.4873 31.418L24.8907 27.4873V51.264C24.8907 51.7007 25.2447 52.0547 25.6813 52.0547C26.118 52.0547 26.4727 51.7007 26.4727 51.264V26.0753L44.5247 9.96068C44.5667 9.92268 44.67 9.92268 44.7127 9.96068L62.5 25.7047C62.494 25.744 62.488 25.7833 62.488 25.8233V51.264C62.488 51.7007 62.842 52.0547 63.2787 52.0547C63.7153 52.0547 64.07 51.7007 64.07 51.264V27.0947L68.476 30.9947C68.8027 31.2847 69.3027 31.254 69.5927 30.926C69.882 30.5993 69.8513 30.0993 69.524 29.81Z" fill="#A5836A"/>
<path d="M60.0094 12.4773C60.0094 12.532 60.004 12.5866 59.9934 12.64C59.9834 12.694 59.9674 12.746 59.9467 12.7966C59.9267 12.8473 59.9014 12.8953 59.8714 12.9406C59.8414 12.9866 59.808 13.0286 59.77 13.0673C59.732 13.106 59.6907 13.1406 59.646 13.1706C59.6014 13.2013 59.554 13.2273 59.5047 13.248C59.4547 13.2686 59.404 13.2846 59.3514 13.2953C59.2987 13.306 59.2454 13.3113 59.192 13.3113C59.138 13.3113 59.0847 13.306 59.032 13.2953C58.9794 13.2846 58.9287 13.2686 58.8787 13.248C58.8294 13.2273 58.782 13.2013 58.7374 13.1706C58.6927 13.1406 58.6514 13.106 58.614 13.0673C58.576 13.0286 58.542 12.9866 58.512 12.9406C58.482 12.8953 58.4574 12.8473 58.4367 12.7966C58.416 12.746 58.4007 12.694 58.39 12.64C58.3794 12.5866 58.374 12.532 58.374 12.4773C58.374 12.4226 58.3794 12.3686 58.39 12.3146C58.4007 12.2613 58.416 12.2086 58.4367 12.158C58.4574 12.1073 58.482 12.0593 58.512 12.014C58.542 11.9686 58.576 11.9266 58.614 11.8873C58.6514 11.8486 58.6927 11.8146 58.7374 11.784C58.782 11.7533 58.8294 11.728 58.8787 11.7066C58.9287 11.686 58.9794 11.67 59.032 11.6593C59.0847 11.6486 59.138 11.6433 59.192 11.6433C59.2454 11.6433 59.2987 11.6486 59.3514 11.6593C59.404 11.67 59.4547 11.686 59.5047 11.7066C59.554 11.728 59.6014 11.7533 59.646 11.784C59.6907 11.8146 59.732 11.8486 59.77 11.8873C59.808 11.9266 59.8414 11.9686 59.8714 12.014C59.9014 12.0593 59.9267 12.1073 59.9467 12.158C59.9674 12.2086 59.9834 12.2613 59.9934 12.3146C60.004 12.3686 60.0094 12.4226 60.0094 12.4773Z" fill="#A5836A"/>
<path d="M45.5048 20.0273C35.9408 20.0273 28.1602 28.0533 28.1602 37.918C28.1602 47.7827 35.9408 55.808 45.5048 55.808C45.7588 55.808 46.0115 55.8013 46.2628 55.79C46.4808 55.7807 46.6855 55.682 46.8275 55.5167C46.9701 55.3513 47.0381 55.134 47.0148 54.9173C46.9195 54.0153 46.6741 53.1247 46.3048 52.3427C45.9141 51.5167 45.2435 50.7113 44.3115 49.9487C44.1575 49.8227 43.9615 49.7567 43.7621 49.7713C42.9541 49.82 42.1262 49.7913 41.3155 49.6867C39.2228 49.4147 38.5588 48.9847 38.3708 48.6713C38.2242 48.4273 38.3735 48.144 38.4975 47.9267C38.6982 47.5753 38.9728 47.094 38.8302 46.5407C38.8155 46.484 38.6908 46.0307 38.3555 45.7387C38.3588 45.7333 38.3622 45.728 38.3655 45.724C38.5462 45.5153 38.6335 45.2533 38.6108 44.9807C38.5702 44.482 38.1735 44.15 38.0528 44.06C38.0495 44.058 38.0462 44.0553 38.0435 44.0527C38.0562 44.036 38.0695 44.02 38.0828 44.006C38.5748 43.6193 38.9428 42.854 38.7308 42.1813C38.5942 41.7493 38.3302 41.406 38.0208 41.0833C37.9068 40.9653 37.8088 40.8633 37.7215 40.738C37.7422 40.7287 37.7662 40.7187 37.7948 40.708C38.3102 40.522 38.7948 40.2893 39.2348 40.018C41.3648 38.702 41.4948 36.5353 41.6088 34.624C41.6455 34.0107 41.6808 33.426 41.7728 32.8713C42.3342 36.328 44.1821 39.57 47.1895 42.3393C47.6681 42.7807 48.1948 43.182 48.7035 43.57C49.7288 44.352 50.6968 45.0907 51.2728 46.1047L51.3015 46.154C51.3608 46.2553 51.5008 46.49 51.6001 46.7647C51.7128 47.0793 52.0368 47.2887 52.3708 47.2887C52.7628 47.2887 53.0961 47.0013 53.1535 46.6133C53.2261 46.118 53.2688 45.57 53.0875 44.914C52.5595 42.9893 51.0248 41.4813 49.7728 40.2493C46.3735 36.9067 45.9435 33.344 45.9501 31.716C46.9781 33.0187 48.5815 33.8807 49.9695 34.6233C50.3215 34.8113 50.6621 34.9933 50.9768 35.1747C53.7775 36.788 56.6728 38.456 56.5815 41.9893C56.5375 43.6227 55.6788 45.292 55.1708 46.1413C54.9468 46.5167 55.0688 47.002 55.4435 47.2267C55.5708 47.3027 55.7108 47.3387 55.8488 47.3387C56.1181 47.3387 56.3801 47.2013 56.5288 46.9533C57.1161 45.9707 58.1095 44.0253 58.1621 42.0307C58.2795 37.556 54.6681 35.4753 51.7661 33.804C51.4381 33.6153 51.0828 33.4247 50.7155 33.228C49.0628 32.344 46.7908 30.974 46.4821 29.6093C46.3941 29.2207 46.5048 28.9193 46.7128 28.596C47.1255 27.958 47.6368 27.51 48.0148 27.2367C49.0421 26.5893 50.0501 26.288 51.1848 26.288C52.2741 26.288 53.3628 26.5767 54.3235 26.8313C55.6868 27.1933 57.5141 28.406 59.4668 30.2473C59.7495 30.5133 60.1821 30.5353 60.4901 30.3C60.7981 30.0647 60.8895 29.6407 60.7075 29.2993C57.6528 23.58 51.8275 20.0273 45.5048 20.0273ZM54.7288 25.3027C53.6748 25.0227 52.4801 24.706 51.1848 24.706C49.7495 24.706 48.4288 25.1007 47.1481 25.9127C47.1355 25.9207 47.1228 25.9293 47.1108 25.938C46.1775 26.6073 44.5948 28.1007 44.4388 30.604C44.3541 31.1933 43.7421 36.538 48.6835 41.3967C48.9195 41.6287 49.1621 41.8673 49.4021 42.1133C48.9961 41.802 48.6115 41.4993 48.2608 41.176C44.9821 38.156 43.2715 34.706 43.1761 30.924C43.1695 30.64 43.1835 29.9807 43.2841 29.5147C43.3581 29.1713 43.1961 28.82 42.8875 28.6527C42.5781 28.486 42.1961 28.5427 41.9488 28.7913C41.4981 29.246 41.0595 30.0933 40.9355 30.3427C40.6468 30.924 40.4282 31.5587 40.2848 32.228C40.1222 32.9907 40.0755 33.7733 40.0302 34.5293C39.9255 36.278 39.8348 37.788 38.4042 38.672C38.0562 38.886 37.6702 39.0713 37.2568 39.2207C36.5328 39.4827 36.2568 39.9253 36.1528 40.2507C36.0528 40.5633 36.0188 41.0587 36.4248 41.6433C36.5815 41.8687 36.7468 42.0413 36.8795 42.18C37.0575 42.3647 37.1482 42.4627 37.2042 42.6067C37.1868 42.6587 37.1402 42.7347 37.1082 42.76C37.0822 42.7787 37.0568 42.7987 37.0335 42.8207C36.9128 42.93 36.3175 43.5153 36.4028 44.28C36.4262 44.4893 36.5215 44.846 36.8762 45.16C36.7695 45.3993 36.6862 45.7113 36.7422 46.0507C36.7968 46.3827 36.9775 46.6773 37.2582 46.8933C37.2222 46.9707 37.1635 47.0727 37.1235 47.142C37.0422 47.2853 36.9575 47.434 36.8968 47.5953C36.5728 48.4573 36.7822 49.0993 37.0148 49.486C37.7295 50.6753 39.5802 51.056 41.1122 51.2553C41.9155 51.3593 42.7348 51.3973 43.5381 51.366C44.1601 51.912 44.6195 52.4793 44.8748 53.0187C45.0515 53.3933 45.1928 53.8007 45.2948 54.2247C36.6995 54.108 29.7422 46.838 29.7422 37.918C29.7422 28.9253 36.8135 21.6093 45.5048 21.6093C49.4615 21.6093 53.2061 23.1467 56.0608 25.8073C55.6148 25.5927 55.1681 25.4187 54.7288 25.3027Z" fill="#A5836A"/>
</svg>
