<svg width="77" height="64" viewBox="0 0 77 64" fill="none" xmlns="http://www.w3.org/2000/svg">
<circle cx="24" cy="23.5" r="23.5" fill="#F4EDE6"/>
<path d="M45.7902 49.5774C45.7535 50.1594 45.2948 50.618 44.7402 50.618H37.1082C36.5535 50.618 36.0949 50.1594 36.0582 49.5774L33.9495 15.8094H47.8995L45.7902 49.5774ZM43.5129 56.2907H38.3355C37.7402 56.2907 37.2535 55.782 37.2535 55.15V51.9H44.5902V55.15C44.5948 55.782 44.1082 56.2907 43.5129 56.2907ZM33.9082 12.1094H47.9402V14.5274H33.9082V12.1094ZM49.2175 11.4727C49.2175 11.118 48.9308 10.832 48.5808 10.832H33.2675C32.9129 10.832 32.6309 11.118 32.6309 11.4727V15.168C32.6309 15.1727 32.6355 15.182 32.6355 15.1867C32.6355 15.1954 32.6309 15.2 32.6309 15.2094L34.7809 49.6547C34.8309 50.4907 35.3082 51.2 35.9769 51.5867V55.15C35.9769 56.4867 37.0309 57.5727 38.3355 57.5727H43.5129C44.8128 57.5727 45.8722 56.4867 45.8722 55.15V51.5867C46.5448 51.2 47.0128 50.4907 47.0675 49.6547L49.2175 15.2094C49.2175 15.2 49.2175 15.1954 49.2175 15.1867C49.2175 15.182 49.2175 15.1727 49.2175 15.168V11.4727Z" fill="#A5836A"/>
<path d="M29.5267 56.3227H20.24V36.0367H24.2447V49.0634C24.2447 49.4181 24.5267 49.7047 24.8807 49.7047C25.2353 49.7047 25.522 49.4181 25.522 49.0634V36.0367H29.5267V56.3227ZM22.0447 25.0181C22.0447 24.6047 22.3807 24.2681 22.79 24.2681H26.972C27.3807 24.2681 27.7173 24.6047 27.7173 25.0181V34.7594H22.0447V25.0181ZM26.972 22.9907H22.79C21.6767 22.9907 20.7673 23.9001 20.7673 25.0181V34.7594H19.5993C19.2447 34.7594 18.958 35.0454 18.958 35.4001V56.9634C18.958 57.3134 19.2447 57.6001 19.5993 57.6001H30.1673C30.5173 57.6001 30.8033 57.3134 30.8033 56.9634V35.4001C30.8033 35.0454 30.5173 34.7594 30.1673 34.7594H28.9947V25.0181C28.9947 23.9001 28.0853 22.9907 26.972 22.9907Z" fill="#A5836A"/>
<path d="M60.9082 48.3907C57.9856 48.3907 55.6129 44.6867 55.6129 40.132C55.6129 35.5774 57.9856 31.868 60.9082 31.868C63.8269 31.868 66.2036 35.5774 66.2036 40.132C66.2036 44.6867 63.8269 48.3907 60.9082 48.3907ZM60.9082 30.718C57.3536 30.718 54.4629 34.9407 54.4629 40.132C54.4629 45.3227 57.3536 49.5454 60.9082 49.5454C64.4629 49.5454 67.3582 45.3227 67.3582 40.132C67.3582 34.9407 64.4629 30.718 60.9082 30.718Z" fill="#A5836A"/>
<path d="M65.4351 18.3452V22.3546H56.3805V18.3452C56.3805 17.5092 57.0625 16.8319 57.8945 16.8319H63.9218C64.7531 16.8319 65.4351 17.5092 65.4351 18.3452ZM68.9031 26.2046V54.9452C68.9031 55.7406 68.2578 56.3866 67.4671 56.3866H54.3491C53.5531 56.3866 52.9078 55.7406 52.9078 54.9452V26.2046C52.9078 24.7132 54.1218 23.5046 55.6078 23.5046H66.2031C67.6945 23.5046 68.9031 24.7132 68.9031 26.2046ZM59.6265 7.5499H62.2398C63.1125 7.5499 63.8171 8.21324 63.8171 9.0319V15.6819H58.0445V9.0319C58.0445 8.21324 58.7531 7.5499 59.6265 7.5499ZM62.2398 6.3999H59.6265C58.1171 6.3999 56.8898 7.5819 56.8898 9.0319V15.8819C55.9218 16.2772 55.2305 17.2272 55.2305 18.3406V22.3679C53.2851 22.5592 51.7578 24.2046 51.7578 26.2046V54.9452C51.7578 56.3772 52.9171 57.5366 54.3491 57.5366H67.4671C68.8945 57.5366 70.0578 56.3772 70.0578 54.9452V26.2046C70.0578 24.2046 68.5305 22.5632 66.5851 22.3679V18.3452C66.5851 17.2499 65.9171 16.3046 64.9718 15.8952V9.0319C64.9718 7.5819 63.7445 6.3999 62.2398 6.3999Z" fill="#A5836A"/>
</svg>
