<svg width="77" height="64" viewBox="0 0 77 64" fill="none" xmlns="http://www.w3.org/2000/svg">
<circle cx="24" cy="23.5" r="23.5" fill="#F4EDE6"/>
<path d="M68.7093 42.1046C68.642 48.8452 63.1293 54.2539 56.3887 54.1906C49.7433 54.1226 44.3667 48.7506 44.3034 42.1046V41.4726H68.7093V42.1046ZM47.0434 53.0259C46.8767 53.7659 46.222 54.2946 45.4587 54.2986H26.52C25.7614 54.2946 25.1067 53.7659 24.94 53.0259L20.8407 34.2492C20.33 31.9332 20.7367 29.5132 21.9734 27.4906H50.01C51.2107 29.4592 51.6307 31.8066 51.1833 34.0686L50.5107 34.0279H50.47C48.678 34.0232 46.958 34.7366 45.698 36.0052C45.626 36.0772 45.554 36.1546 45.4813 36.2352L45.414 36.3126C45.364 36.3666 45.3187 36.4206 45.274 36.4746L45.1974 36.5652C45.1567 36.6192 45.116 36.6692 45.084 36.7186L45.0074 36.8226C44.9714 36.8719 44.9354 36.9219 44.8947 36.9759L44.8227 37.0799C44.786 37.1339 44.7547 37.1879 44.7187 37.2466C44.696 37.2786 44.678 37.3099 44.6554 37.3419C44.6194 37.4046 44.5834 37.4679 44.5467 37.5359L44.506 37.6126C44.4567 37.7026 44.4114 37.7932 44.3667 37.8879L44.344 37.9379C44.308 38.0146 44.276 38.0912 44.24 38.1726C44.2267 38.2039 44.2127 38.2352 44.1994 38.2719C44.1767 38.3306 44.1494 38.3939 44.1314 38.4566C44.1133 38.4932 44.1 38.5332 44.0867 38.5739C44.0687 38.6326 44.0507 38.6872 44.028 38.7546C44.0187 38.7906 44.0054 38.8312 43.9914 38.8679C43.9734 38.9306 43.96 38.9852 43.942 39.0526C43.9327 39.0886 43.9194 39.1292 43.9147 39.1659C43.8967 39.2286 43.8834 39.2966 43.87 39.3599C43.8607 39.3959 43.852 39.4319 43.8474 39.4726C43.8294 39.5492 43.82 39.6259 43.8067 39.7026C43.8067 39.7252 43.7973 39.7526 43.7934 39.7752C43.7794 39.8746 43.766 39.9739 43.7567 40.0732H43.608C43.2194 40.0732 42.9127 40.3846 42.9127 40.7686V42.1046C42.9127 42.2219 42.9127 42.3439 42.9174 42.4659C42.9174 42.5066 42.9174 42.5472 42.9174 42.5879C42.9174 42.6646 42.9174 42.7459 42.926 42.8226C42.926 42.8719 42.9307 42.9219 42.9354 42.9672C42.9354 43.0392 42.944 43.1112 42.9487 43.1839C42.9487 43.2332 42.958 43.2832 42.962 43.3372C42.9667 43.3912 42.976 43.4726 42.9807 43.5406C42.9894 43.6079 42.994 43.6439 43.0027 43.6986C43.0074 43.7526 43.0167 43.8292 43.0254 43.8926C43.0347 43.9599 43.0394 44.0006 43.048 44.0552L43.0754 44.2446C43.084 44.3032 43.0934 44.3572 43.1067 44.4119C43.116 44.4659 43.1247 44.5379 43.1387 44.5966C43.1474 44.6599 43.1607 44.7052 43.17 44.7639C43.1834 44.8179 43.1927 44.8766 43.206 44.9446C43.2194 45.0119 43.2334 45.0572 43.2467 45.1112L43.2874 45.2919L43.328 45.4592C43.3414 45.5179 43.3594 45.5719 43.3734 45.6352C43.3914 45.6986 43.4047 45.7526 43.418 45.8019C43.4367 45.8519 43.4547 45.9192 43.4727 45.9739C43.486 46.0326 43.504 46.0866 43.522 46.1406C43.54 46.1952 43.558 46.2579 43.576 46.3126C43.5947 46.3712 43.6127 46.4252 43.6307 46.4792C43.6487 46.5332 43.6714 46.5919 43.6894 46.6466C43.7074 46.7006 43.73 46.7592 43.748 46.8132C43.7707 46.8679 43.7887 46.9219 43.8114 46.9806L43.874 47.1432C43.8967 47.1972 43.9194 47.2512 43.942 47.3052C43.9647 47.3599 43.9874 47.4139 44.01 47.4679C44.032 47.5226 44.0594 47.5766 44.082 47.6306L44.154 47.7932L44.2267 47.9512C44.2534 48.0052 44.2807 48.0592 44.308 48.1092C44.3347 48.1632 44.3574 48.2172 44.3847 48.2672C44.4114 48.3166 44.4387 48.3752 44.466 48.4252L44.5467 48.5786C44.5787 48.6326 44.6054 48.6826 44.6374 48.7366L44.7187 48.8859L44.8134 49.0439L44.8994 49.1879C44.9307 49.2426 44.962 49.2919 44.9987 49.3459C45.03 49.4006 45.0574 49.4412 45.0887 49.4859L45.1927 49.6439L45.2873 49.7839C45.3187 49.8339 45.3554 49.8879 45.3913 49.9379C45.4274 49.9872 45.4547 50.0279 45.4907 50.0732C45.5174 50.1179 45.5627 50.1726 45.6033 50.2219C45.6487 50.2719 45.6714 50.3126 45.7073 50.3572C45.7387 50.3979 45.7794 50.4566 45.82 50.5066C45.8607 50.5559 45.888 50.5879 45.924 50.6326L46.0367 50.7819C46.0727 50.8226 46.1047 50.8632 46.1407 50.8992C46.2267 50.9986 46.312 51.0979 46.398 51.1926L46.506 51.3099C46.5427 51.3506 46.5874 51.3959 46.6194 51.4366C46.6553 51.4819 46.7047 51.5266 46.7453 51.5719L46.8627 51.6846L46.994 51.8199L47.116 51.9379C47.1607 51.9739 47.1973 52.0146 47.238 52.0506L47.0434 53.0259ZM29.3687 23.1519H42.61C45.0434 23.2246 47.3374 24.2899 48.9713 26.0999H23.0074C24.6374 24.2899 26.9354 23.2246 29.3687 23.1519ZM28.958 19.0666C28.958 18.4252 29.4767 17.9059 30.118 17.9059H41.8654C42.506 17.9059 43.0254 18.4252 43.0254 19.0666V20.6012C43.0254 21.2426 42.506 21.7612 41.8654 21.7612H30.118C29.4767 21.7612 28.958 21.2426 28.958 20.6012V19.0666ZM34.4474 10.3572H37.5354V16.5152H34.4474V10.3572ZM32.0687 8.4339C32.0687 8.14056 32.308 7.90123 32.6014 7.90123H49.5674C49.8607 7.90123 50.1 8.14056 50.1 8.4339C50.1 8.7279 49.8607 8.96723 49.5674 8.96723H32.6014C32.308 8.96256 32.0687 8.7279 32.0687 8.4339ZM46.962 11.7299V10.3572H49.0254V11.7299H46.962ZM66.2353 34.6192L67.9013 34.0279V36.5652C67.8967 38.5019 66.326 40.0732 64.3887 40.0772H45.1607L45.17 40.0186L45.1834 39.9286C45.1927 39.8746 45.2014 39.8246 45.2107 39.7752C45.2154 39.7432 45.2194 39.7119 45.224 39.6846C45.238 39.6306 45.2467 39.5672 45.2647 39.5179C45.2694 39.4952 45.274 39.4726 45.278 39.4452C45.2967 39.3686 45.3187 39.2919 45.346 39.2152L45.3554 39.1792C45.3734 39.1159 45.396 39.0526 45.418 38.9852C45.4274 38.9626 45.4367 38.9352 45.4454 38.9086C45.468 38.8586 45.486 38.8092 45.504 38.7592L45.54 38.6732C45.5627 38.6286 45.5807 38.5786 45.6033 38.5332L45.644 38.4526C45.6667 38.4026 45.6894 38.3532 45.716 38.3032C45.73 38.2806 45.7387 38.2579 45.7527 38.2352C45.7934 38.1679 45.8293 38.0959 45.8654 38.0279C45.87 38.0186 45.874 38.0146 45.8787 38.0052C45.9193 37.9419 45.9554 37.8832 45.996 37.8199L46.0414 37.7526C46.0727 37.7072 46.1047 37.6619 46.136 37.6219L46.1947 37.5446C46.222 37.5039 46.2534 37.4632 46.2894 37.4232L46.348 37.3506C46.38 37.3099 46.4207 37.2652 46.4567 37.2246C46.4747 37.2059 46.4927 37.1839 46.5107 37.1659C46.5653 37.1066 46.624 37.0439 46.678 36.9852C46.8673 36.7999 47.066 36.6286 47.278 36.4706C48.19 35.7886 49.3053 35.4186 50.4433 35.4186L51.6894 35.4952L57.5854 35.8519C60.5247 36.0279 63.468 35.6126 66.2353 34.6192ZM69.4047 40.0772H67.802C68.7547 39.1566 69.292 37.8879 69.2873 36.5652V33.0439C69.292 32.6599 68.9807 32.3486 68.5967 32.3486C68.52 32.3486 68.4387 32.3619 68.362 32.3892L65.7747 33.3146C63.1747 34.2399 60.416 34.6326 57.6667 34.4612L52.5694 34.1546C53.102 31.1879 52.348 28.1272 50.484 25.7526C48.8993 23.7119 46.5967 22.3346 44.046 21.9059C44.2807 21.5086 44.4067 21.0619 44.4067 20.6059V19.0666C44.4067 17.6579 43.2647 16.5152 41.856 16.5152H38.926V10.3572H45.576V12.4252C45.576 12.8092 45.8834 13.1206 46.2674 13.1206H49.716C50.1 13.1206 50.4114 12.8092 50.4114 12.4252V10.1546C51.364 9.68923 51.7567 8.5379 51.2873 7.58523C50.9667 6.92656 50.2987 6.51123 49.5674 6.51123H32.6014C31.54 6.51123 30.678 7.36856 30.678 8.4339C30.678 9.49523 31.54 10.3572 32.6014 10.3572H33.0574V16.5152H30.118C28.7094 16.5152 27.5674 17.6579 27.5674 19.0666V20.6012C27.5674 21.0572 27.6894 21.5086 27.924 21.9012C25.3734 22.3346 23.0754 23.7072 21.486 25.7526C21.3234 25.9646 21.17 26.1812 21.0254 26.4026V26.4119C19.4274 28.7999 18.8767 31.7392 19.4954 34.5472L23.5807 53.3239C23.888 54.7006 25.1114 55.6846 26.52 55.6939H45.4587C46.872 55.6846 48.0954 54.7006 48.4027 53.3239L48.4613 53.0526C54.5107 57.4999 63.0167 56.1952 67.4633 50.1452C69.1747 47.8159 70.1 44.9986 70.1 42.1046V40.7726C70.1 40.3892 69.7887 40.0772 69.4047 40.0772Z" fill="#A5836A"/>
<path d="M39.5218 45.22C38.7632 46.4387 37.4272 47.1747 35.9912 47.1613C33.6531 47.166 31.7611 45.274 31.7611 42.9353C31.7565 42.308 31.8965 41.6846 32.1678 41.1206L35.9105 33.2426L39.7298 40.6326C40.4565 42.1633 40.3752 43.8833 39.5218 45.22ZM40.9805 40.0006L36.4745 31.3053C36.2938 30.9673 35.8738 30.836 35.5352 31.012C35.3772 31.098 35.2558 31.238 35.2012 31.4093L35.1018 31.712L30.9171 40.52C29.5805 43.3146 30.7591 46.6647 33.5538 48.0007C36.1092 49.2247 39.1698 48.3533 40.7005 45.9647C41.8112 44.2173 41.9192 41.9966 40.9985 40.0233L40.9805 40.0006Z" fill="#A5836A"/>
</svg>
