<svg width="231" height="40" viewBox="0 0 231 40" fill="none" xmlns="http://www.w3.org/2000/svg">
<path d="M13.248 26V15.38H9.072V13.4H19.764V15.38H15.588V26H13.248ZM33.9761 13.4H36.3161V26H33.9761V13.4ZM27.4601 26H25.1201V13.4H27.4601V26ZM34.1561 20.6H27.2621V18.602H34.1561V20.6ZM45.4524 18.638H51.7164V20.564H45.4524V18.638ZM45.6324 24.038H52.7424V26H43.2924V13.4H52.4904V15.362H45.6324V24.038ZM67.5256 26V13.4H72.7096C73.8256 13.4 74.7796 13.58 75.5716 13.94C76.3756 14.3 76.9936 14.816 77.4256 15.488C77.8576 16.16 78.0736 16.958 78.0736 17.882C78.0736 18.806 77.8576 19.604 77.4256 20.276C76.9936 20.948 76.3756 21.464 75.5716 21.824C74.7796 22.184 73.8256 22.364 72.7096 22.364H68.8216L69.8656 21.266V26H67.5256ZM69.8656 21.518L68.8216 20.384H72.6016C73.6336 20.384 74.4076 20.168 74.9236 19.736C75.4516 19.292 75.7156 18.674 75.7156 17.882C75.7156 17.078 75.4516 16.46 74.9236 16.028C74.4076 15.596 73.6336 15.38 72.6016 15.38H68.8216L69.8656 14.228V21.518ZM86.1704 18.638H92.4344V20.564H86.1704V18.638ZM86.3504 24.038H93.4604V26H84.0104V13.4H93.2084V15.362H86.3504V24.038ZM99.669 26V13.4H104.853C105.969 13.4 106.923 13.58 107.715 13.94C108.519 14.3 109.137 14.816 109.569 15.488C110.001 16.16 110.217 16.958 110.217 17.882C110.217 18.806 110.001 19.604 109.569 20.276C109.137 20.936 108.519 21.446 107.715 21.806C106.923 22.154 105.969 22.328 104.853 22.328H100.965L102.009 21.266V26H99.669ZM107.913 26L104.727 21.428H107.229L110.433 26H107.913ZM102.009 21.518L100.965 20.402H104.745C105.777 20.402 106.551 20.18 107.067 19.736C107.595 19.292 107.859 18.674 107.859 17.882C107.859 17.078 107.595 16.46 107.067 16.028C106.551 15.596 105.777 15.38 104.745 15.38H100.965L102.009 14.228V21.518ZM118.577 19.196H124.859V21.176H118.577V19.196ZM118.775 26H116.435V13.4H125.633V15.362H118.775V26ZM133.656 18.638H139.92V20.564H133.656V18.638ZM133.836 24.038H140.946V26H131.496V13.4H140.694V15.362H133.836V24.038ZM152.986 26.18C152.026 26.18 151.132 26.024 150.304 25.712C149.488 25.388 148.774 24.938 148.162 24.362C147.562 23.774 147.094 23.084 146.758 22.292C146.422 21.5 146.254 20.636 146.254 19.7C146.254 18.764 146.422 17.9 146.758 17.108C147.094 16.316 147.568 15.632 148.18 15.056C148.792 14.468 149.506 14.018 150.322 13.706C151.138 13.382 152.032 13.22 153.004 13.22C154.036 13.22 154.978 13.4 155.83 13.76C156.682 14.108 157.402 14.63 157.99 15.326L156.478 16.748C156.022 16.256 155.512 15.89 154.948 15.65C154.384 15.398 153.772 15.272 153.112 15.272C152.452 15.272 151.846 15.38 151.294 15.596C150.754 15.812 150.28 16.118 149.872 16.514C149.476 16.91 149.164 17.378 148.936 17.918C148.72 18.458 148.612 19.052 148.612 19.7C148.612 20.348 148.72 20.942 148.936 21.482C149.164 22.022 149.476 22.49 149.872 22.886C150.28 23.282 150.754 23.588 151.294 23.804C151.846 24.02 152.452 24.128 153.112 24.128C153.772 24.128 154.384 24.008 154.948 23.768C155.512 23.516 156.022 23.138 156.478 22.634L157.99 24.074C157.402 24.758 156.682 25.28 155.83 25.64C154.978 26 154.03 26.18 152.986 26.18ZM166.248 26V15.38H162.072V13.4H172.764V15.38H168.588V26H166.248ZM192.527 26.18C191.567 26.18 190.673 26.024 189.845 25.712C189.029 25.388 188.315 24.938 187.703 24.362C187.103 23.774 186.635 23.084 186.299 22.292C185.963 21.5 185.795 20.636 185.795 19.7C185.795 18.764 185.963 17.9 186.299 17.108C186.635 16.316 187.109 15.632 187.721 15.056C188.333 14.468 189.047 14.018 189.863 13.706C190.679 13.382 191.573 13.22 192.545 13.22C193.577 13.22 194.519 13.4 195.371 13.76C196.223 14.108 196.943 14.63 197.531 15.326L196.019 16.748C195.563 16.256 195.053 15.89 194.489 15.65C193.925 15.398 193.313 15.272 192.653 15.272C191.993 15.272 191.387 15.38 190.835 15.596C190.295 15.812 189.821 16.118 189.413 16.514C189.017 16.91 188.705 17.378 188.477 17.918C188.261 18.458 188.153 19.052 188.153 19.7C188.153 20.348 188.261 20.942 188.477 21.482C188.705 22.022 189.017 22.49 189.413 22.886C189.821 23.282 190.295 23.588 190.835 23.804C191.387 24.02 191.993 24.128 192.653 24.128C193.313 24.128 193.925 24.008 194.489 23.768C195.053 23.516 195.563 23.138 196.019 22.634L197.531 24.074C196.943 24.758 196.223 25.28 195.371 25.64C194.519 26 193.571 26.18 192.527 26.18ZM208.773 26.18C207.045 26.18 205.689 25.694 204.705 24.722C203.733 23.75 203.247 22.346 203.247 20.51V13.4H205.587V20.42C205.587 21.716 205.863 22.658 206.415 23.246C206.979 23.834 207.771 24.128 208.791 24.128C209.811 24.128 210.597 23.834 211.149 23.246C211.701 22.658 211.977 21.716 211.977 20.42V13.4H214.281V20.51C214.281 22.346 213.789 23.75 212.805 24.722C211.833 25.694 210.489 26.18 208.773 26.18ZM223.486 26V15.38H219.31V13.4H230.002V15.38H225.826V26H223.486Z" fill="white"/>
<rect x="0.5" y="0.5" width="60" height="39" stroke="white"/>
</svg>
