<svg width="633" height="554" viewBox="0 0 633 554" fill="none" xmlns="http://www.w3.org/2000/svg">
<path d="M246.1 357.7V347.2C142.5 336 78.8 369.6 48 411.6C0.4 475.3 39.6 553.7 117.3 547.4C235.6 536.9 291.6 408.1 329.4 331.1C381.2 221.9 423.9 107.8 533.1 62.3C575.8 88.2 601 136.5 587 186.2C555.5 280 465.2 294 376.3 261.8L373.5 270.2C409.9 284.2 479.9 294.7 521.9 279.3C562.5 266 605.9 235.2 617.8 190.4C632.5 126 600.3 81.2 552 54.6C574.4 47.6 598.9 43.4 626.2 42L624.1 31.5C591.9 32.9 563.2 38.5 537.3 47.6C524.7 42 511.4 37.1 498.1 33.6C377.7 -2.16961e-05 198.5 36.4 137.6 154.7C117.3 187.6 106.8 240.8 134.8 274.4C151.6 293.3 180.3 299.6 201.3 293.3C209.7 304.5 218.1 315.7 229.3 327.6L237.7 318.5C226.5 310.1 221.6 301.7 215.3 290.5C271.3 277.2 335 221.9 344.1 160.3C355.3 106.4 307.7 98 268.5 112C201.3 140 159.3 215.6 195.7 285.6C176.8 285.6 156.5 282.8 142.5 268.8C117.3 237.3 131.3 190.4 145.3 160.3C206.9 47.6 379.8 12.6 495.3 45.5C503.7 47.6 511.4 51.1 519.1 54.6C405.7 102.9 351.8 219.1 299.3 324.8C265.7 397.6 201.3 536.9 109.6 536.9C45.9 536.9 17.9 473.2 55.7 416.5C84.4 377.3 145.3 347.2 246.1 357.7ZM206.9 282.8C174 218.4 209.7 148.4 274.1 123.2C305.6 109.2 341.3 114.8 335 160.3C325.2 215.6 263.6 271.6 206.9 282.8Z" fill="white" fill-opacity="0.05"/>
</svg>
