<svg width="174" height="175" viewBox="0 0 174 175" fill="none" xmlns="http://www.w3.org/2000/svg">
<path d="M-1.52553e-05 174.5C-2.36805e-05 78.1263 78.1263 2.36805e-05 174.5 1.52553e-05C270.874 6.83002e-06 349 78.1263 349 174.5C349 270.874 270.874 349 174.5 349C78.1263 349 -6.83002e-06 270.874 -1.52553e-05 174.5ZM340.275 174.5C340.275 82.945 266.055 8.72501 174.5 8.72502C82.945 8.72503 8.72498 82.945 8.72499 174.5C8.725 266.055 82.945 340.275 174.5 340.275C266.055 340.275 340.275 266.055 340.275 174.5Z" fill="#C19A5D"/>
</svg>
